<svg version="1.1" id="Layer_1" xmlns="http://www.w3.org/2000/svg" xmlns:xlink="http://www.w3.org/1999/xlink" x="0px" y="0px"
	 width="100%" viewBox="0 0 1254 1254" enable-background="new 0 0 1254 1254" xml:space="preserve">
<path fill="#000000" opacity="1.000000" stroke="none" 
	d="
M232.000000,1255.000000 
	C230.933212,1255.000000 229.866425,1255.000000 228.806396,1254.779663 
	C227.997559,1253.763428 227.181931,1252.967407 225.948669,1252.087646 
	C212.109634,1250.928833 198.400970,1251.247192 185.314087,1248.549438 
	C107.804024,1232.570923 52.489651,1188.493042 21.271809,1115.486572 
	C15.055375,1100.948853 11.711938,1085.182617 7.094026,1069.551392 
	C6.105200,1055.350464 4.217835,1041.584106 4.166961,1027.810913 
	C3.874608,948.661133 3.916714,869.509705 4.032682,790.359009 
	C4.320505,593.914673 4.709432,397.470459 5.241141,200.670853 
	C8.628973,185.904877 10.848673,171.186844 15.232003,157.144180 
	C26.135960,122.211693 44.777874,91.655769 71.386314,66.433128 
	C115.995453,24.147295 169.323776,3.896176 230.777328,3.928003 
	C497.561218,4.066172 764.345215,3.949350 1031.129150,4.030783 
	C1078.164795,4.045141 1121.369995,17.632172 1159.174316,45.311726 
	C1219.652954,89.592903 1250.943604,150.049683 1251.840820,225.068832 
	C1252.705566,297.378448 1252.008423,369.706543 1252.029785,442.026520 
	C1252.042236,483.681396 1252.118530,525.336304 1252.079712,567.387573 
	C1252.051025,568.859009 1252.108765,569.933960 1252.090820,571.471558 
	C1252.015991,708.421814 1252.110962,844.909424 1251.949707,981.396790 
	C1251.910767,1014.313782 1254.239258,1047.397461 1246.634033,1080.238037 
	C1227.042114,1155.299561 1182.402466,1208.206299 1110.471558,1237.381226 
	C1088.860107,1246.146851 1066.154907,1250.211670 1042.540771,1251.964966 
	C1037.247681,1251.904175 1032.415527,1251.961548 1027.583496,1251.961670 
	C763.970581,1251.967773 500.357727,1251.968994 236.744827,1251.973267 
	C235.412521,1251.973389 233.959793,1251.704346 232.800293,1252.161621 
	C232.246536,1252.380371 232.249329,1254.009644 232.000000,1255.000000 
M933.040833,365.491547 
	C892.080505,477.383392 851.120117,589.275208 810.135315,701.233887 
	C808.144897,696.969971 805.951599,692.519897 803.965454,687.979187 
	C776.958374,626.235657 749.936523,564.498474 723.006958,502.721130 
	C696.695374,442.361450 670.418579,381.986298 644.373169,321.511688 
	C642.547241,317.271942 640.374817,316.514618 636.286316,316.396454 
	C632.245789,316.279724 630.552979,317.720581 629.025330,321.259186 
	C611.377930,362.137512 593.504639,402.918243 575.801880,443.772797 
	C543.636597,518.004089 511.543182,592.266479 479.427155,666.519043 
	C473.895325,679.308594 468.399994,692.113892 462.635193,705.498535 
	C461.908600,703.620667 461.414551,702.429626 460.983063,701.216309 
	C441.170197,645.503174 421.369232,589.785706 401.553070,534.073792 
	C377.926453,467.648956 354.250946,401.241455 330.756470,334.769958 
	C329.526733,331.290741 327.541260,331.272614 324.745422,331.274597 
	C284.080627,331.303497 243.415817,331.276123 202.750992,331.262634 
	C198.636673,331.261261 194.522354,331.262482 189.894424,331.262482 
	C190.614380,333.540497 191.039185,335.095581 191.592194,336.603638 
	C207.093689,378.875549 222.543915,421.166473 238.134048,463.405701 
	C269.309692,547.871582 300.559662,632.309998 331.785828,716.757263 
	C349.324249,764.187683 366.902649,811.603333 384.414368,859.043701 
	C399.200439,899.099976 413.971527,939.162109 428.570740,979.286621 
	C429.906189,982.956848 431.730194,983.961975 435.425293,983.838318 
	C443.748810,983.559753 452.094757,983.555176 460.417877,983.839844 
	C464.145874,983.967346 465.840363,982.754578 467.334961,979.262634 
	C492.229431,921.099304 517.299316,863.010986 542.332764,804.907043 
	C569.572510,741.681946 596.810364,678.456116 624.061523,615.236023 
	C627.904968,606.319702 631.819702,597.434143 635.985413,587.883362 
	C636.665222,589.176086 636.904053,589.564331 637.082397,589.978577 
	C653.248474,627.528442 669.378845,665.093567 685.579468,702.628479 
	C705.308411,748.338013 725.139648,794.003357 744.846375,839.722412 
	C765.058167,886.613525 785.156799,933.553467 805.411255,980.426147 
	C806.000244,981.789185 807.766602,983.548706 809.019714,983.577637 
	C819.830322,983.827087 830.649109,983.721130 841.445312,983.721130 
	C921.777222,766.310181 1001.997559,549.201111 1082.394409,331.614532 
	C1080.875488,331.504791 1079.936157,331.378021 1078.996826,331.377594 
	C1035.666016,331.358917 992.335022,331.316681 949.004822,331.488312 
	C947.516907,331.494202 945.285339,333.351013 944.675903,334.860168 
	C940.683960,344.745575 937.043518,354.772919 933.040833,365.491547 
z"/>
<path fill="#FCFCFC" opacity="1.000000" stroke="none" 
	d="
M1252.166260,566.991150 
	C1252.118530,525.336304 1252.042236,483.681396 1252.029785,442.026520 
	C1252.008423,369.706543 1252.705566,297.378448 1251.840820,225.068832 
	C1250.943604,150.049683 1219.652954,89.592903 1159.174316,45.311726 
	C1121.369995,17.632172 1078.164795,4.045141 1031.129150,4.030783 
	C764.345215,3.949350 497.561218,4.066172 230.777328,3.928003 
	C169.323776,3.896176 115.995453,24.147295 71.386314,66.433128 
	C44.777874,91.655769 26.135960,122.211693 15.232003,157.144180 
	C10.848673,171.186844 8.628973,185.904877 4.966081,200.457306 
	C3.338418,199.732712 2.169208,198.866364 0.999999,198.000000 
	C1.000000,132.347580 1.000000,66.695145 1.000000,1.021359 
	C418.895111,1.021359 836.790222,1.021359 1255.000000,1.021359 
	C1255.000000,189.354111 1255.000000,377.708405 1254.645752,566.530518 
	C1253.583130,566.995972 1252.874634,566.993591 1252.166260,566.991150 
z"/>
<path fill="#FDFDFD" opacity="1.000000" stroke="none" 
	d="
M7.043707,1069.982788 
	C11.711938,1085.182617 15.055375,1100.948853 21.271809,1115.486572 
	C52.489651,1188.493042 107.804024,1232.570923 185.314087,1248.549438 
	C198.400970,1251.247192 212.109634,1250.928833 225.565643,1252.365234 
	C225.066849,1253.484253 224.533432,1254.242188 224.000000,1255.000000 
	C149.746231,1255.000000 75.492462,1255.000000 1.000000,1255.000000 
	C1.000000,1193.312622 1.000000,1131.625000 1.327684,1069.516357 
	C3.347353,1070.023682 4.635840,1073.402466 7.043707,1069.982788 
z"/>
<path fill="#FDFCFD" opacity="1.000000" stroke="none" 
	d="
M1043.001831,1252.056274 
	C1066.154907,1250.211670 1088.860107,1246.146851 1110.471558,1237.381226 
	C1182.402466,1208.206299 1227.042114,1155.299561 1247.027100,1080.245117 
	C1249.108032,1078.363281 1250.605835,1076.800171 1251.980713,1075.135498 
	C1253.065674,1073.821899 1253.999146,1072.383179 1255.000000,1071.000000 
	C1255.000000,1132.265503 1255.000000,1193.531006 1255.000000,1255.000000 
	C1184.645874,1255.000000 1114.291626,1255.000000 1043.468750,1254.632080 
	C1043.000732,1253.528076 1043.001221,1252.792236 1043.001831,1252.056274 
z"/>
<path fill="#F8F8F8" opacity="1.000000" stroke="none" 
	d="
M7.094023,1069.551392 
	C4.635840,1073.402466 3.347353,1070.023682 1.327684,1069.047852 
	C1.000000,778.979126 1.000000,488.958221 0.999999,198.468658 
	C2.169208,198.866364 3.338418,199.732712 4.782688,200.812622 
	C4.709432,397.470459 4.320505,593.914673 4.032682,790.359009 
	C3.916714,869.509705 3.874608,948.661133 4.166961,1027.810913 
	C4.217835,1041.584106 6.105200,1055.350464 7.094023,1069.551392 
z"/>
<path fill="#F6F6F5" opacity="1.000000" stroke="none" 
	d="
M1042.540771,1251.964966 
	C1043.001221,1252.792236 1043.000732,1253.528076 1043.000000,1254.632080 
	C772.979126,1255.000000 502.958221,1255.000000 232.468658,1255.000000 
	C232.249329,1254.009644 232.246536,1252.380371 232.800293,1252.161621 
	C233.959793,1251.704346 235.412521,1251.973389 236.744827,1251.973267 
	C500.357727,1251.968994 763.970581,1251.967773 1027.583496,1251.961670 
	C1032.415527,1251.961548 1037.247681,1251.904175 1042.540771,1251.964966 
z"/>
<path fill="#FCFCFC" opacity="1.000000" stroke="none" 
	d="
M1255.000000,1070.531372 
	C1253.999146,1072.383179 1253.065674,1073.821899 1251.980713,1075.135498 
	C1250.605835,1076.800171 1249.108032,1078.363281 1247.270264,1079.963135 
	C1254.239258,1047.397461 1251.910767,1014.313782 1251.949707,981.396790 
	C1252.110962,844.909424 1252.015991,708.421814 1252.444946,571.468750 
	C1253.583130,571.002075 1254.291626,571.001038 1255.000000,571.000000 
	C1255.000000,737.354248 1255.000000,903.708496 1255.000000,1070.531372 
z"/>
<path fill="#F1F2F2" opacity="1.000000" stroke="none" 
	d="
M1255.000000,570.599792 
	C1254.291626,571.001038 1253.583130,571.002075 1252.520630,571.006042 
	C1252.108765,569.933960 1252.051025,568.859009 1252.079712,567.387573 
	C1252.874634,566.993591 1253.583130,566.995972 1254.645752,566.999207 
	C1255.000000,568.066528 1255.000000,569.133057 1255.000000,570.599792 
z"/>
<path fill="#F6F6F5" opacity="1.000000" stroke="none" 
	d="
M224.399994,1255.000000 
	C224.533432,1254.242188 225.066849,1253.484253 225.983292,1252.448975 
	C227.181931,1252.967407 227.997559,1253.763428 228.406586,1254.779663 
	C226.933334,1255.000000 225.866653,1255.000000 224.399994,1255.000000 
z"/>
<path fill="#FDFDFD" opacity="1.000000" stroke="none" 
	d="
M933.164551,365.122742 
	C937.043518,354.772919 940.683960,344.745575 944.675903,334.860168 
	C945.285339,333.351013 947.516907,331.494202 949.004822,331.488312 
	C992.335022,331.316681 1035.666016,331.358917 1078.996826,331.377594 
	C1079.936157,331.378021 1080.875488,331.504791 1082.394409,331.614532 
	C1001.997559,549.201111 921.777222,766.310181 841.445312,983.721130 
	C830.649109,983.721130 819.830322,983.827087 809.019714,983.577637 
	C807.766602,983.548706 806.000244,981.789185 805.411255,980.426147 
	C785.156799,933.553467 765.058167,886.613525 744.846375,839.722412 
	C725.139648,794.003357 705.308411,748.338013 685.579468,702.628479 
	C669.378845,665.093567 653.248474,627.528442 637.082397,589.978577 
	C636.904053,589.564331 636.665222,589.176086 635.985413,587.883362 
	C631.819702,597.434143 627.904968,606.319702 624.061523,615.236023 
	C596.810364,678.456116 569.572510,741.681946 542.332764,804.907043 
	C517.299316,863.010986 492.229431,921.099304 467.334961,979.262634 
	C465.840363,982.754578 464.145874,983.967346 460.417877,983.839844 
	C452.094757,983.555176 443.748810,983.559753 435.425293,983.838318 
	C431.730194,983.961975 429.906189,982.956848 428.570740,979.286621 
	C413.971527,939.162109 399.200439,899.099976 384.414368,859.043701 
	C366.902649,811.603333 349.324249,764.187683 331.785828,716.757263 
	C300.559662,632.309998 269.309692,547.871582 238.134048,463.405701 
	C222.543915,421.166473 207.093689,378.875549 191.592194,336.603638 
	C191.039185,335.095581 190.614380,333.540497 189.894424,331.262482 
	C194.522354,331.262482 198.636673,331.261261 202.750992,331.262634 
	C243.415817,331.276123 284.080627,331.303497 324.745422,331.274597 
	C327.541260,331.272614 329.526733,331.290741 330.756470,334.769958 
	C354.250946,401.241455 377.926453,467.648956 401.553070,534.073792 
	C421.369232,589.785706 441.170197,645.503174 460.983063,701.216309 
	C461.414551,702.429626 461.908600,703.620667 462.635193,705.498535 
	C468.399994,692.113892 473.895325,679.308594 479.427155,666.519043 
	C511.543182,592.266479 543.636597,518.004089 575.801880,443.772797 
	C593.504639,402.918243 611.377930,362.137512 629.025330,321.259186 
	C630.552979,317.720581 632.245789,316.279724 636.286316,316.396454 
	C640.374817,316.514618 642.547241,317.271942 644.373169,321.511688 
	C670.418579,381.986298 696.695374,442.361450 723.006958,502.721130 
	C749.936523,564.498474 776.958374,626.235657 803.965454,687.979187 
	C805.951599,692.519897 808.144897,696.969971 810.135315,701.233887 
	C851.120117,589.275208 892.080505,477.383392 933.164551,365.122742 
z"/>
</svg>